<?xml version="1.0" encoding="utf-8"?>
<!-- Generator: Adobe Illustrator 21.0.0, SVG Export Plug-In . SVG Version: 6.00 Build 0)  -->
<svg version="1.1" id="Layer_1" xmlns="http://www.w3.org/2000/svg" xmlns:xlink="http://www.w3.org/1999/xlink" x="0px" y="0px"
	 viewBox="0 0 1334.5 926.5" enable-background="new 0 0 1334.5 926.5" xml:space="preserve">
<rect fill="#E5E5E5" width="1334" height="926"/>
<g>
	
		<polygon fill="none" stroke="#151CAA" stroke-linecap="round" stroke-linejoin="round" stroke-miterlimit="10" stroke-dasharray="9,9,6,12,12,12" points="
		29,0.7 35.5,22.1 57.9,21.6 39.5,34.4 46.8,55.5 29,42 11.2,55.5 18.5,34.4 0.1,21.6 22.5,22.1 	"/>
	
		<polygon fill="none" stroke="#151CAA" stroke-linecap="round" stroke-linejoin="round" stroke-miterlimit="10" stroke-dasharray="9,9,6,12,12,12" points="
		122,0.7 128.5,22.1 150.9,21.6 132.5,34.4 139.8,55.5 122,42 104.2,55.5 111.5,34.4 93.1,21.6 115.5,22.1 	"/>
	
		<polygon fill="none" stroke="#151CAA" stroke-linecap="round" stroke-linejoin="round" stroke-miterlimit="10" stroke-dasharray="9,9,6,12,12,12" points="
		215,0.7 221.5,22.1 243.9,21.6 225.5,34.4 232.8,55.5 215,42 197.2,55.5 204.5,34.4 186.1,21.6 208.5,22.1 	"/>
	
		<polygon fill="none" stroke="#151CAA" stroke-linecap="round" stroke-linejoin="round" stroke-miterlimit="10" stroke-dasharray="9,9,6,12,12,12" points="
		308,0.7 314.5,22.1 336.9,21.6 318.5,34.4 325.8,55.5 308,42 290.2,55.5 297.5,34.4 279.1,21.6 301.5,22.1 	"/>
	
		<polygon fill="none" stroke="#151CAA" stroke-linecap="round" stroke-linejoin="round" stroke-miterlimit="10" stroke-dasharray="9,9,6,12,12,12" points="
		401,0.7 407.5,22.1 429.9,21.6 411.5,34.4 418.8,55.5 401,42 383.2,55.5 390.5,34.4 372.1,21.6 394.5,22.1 	"/>
	
		<polygon fill="none" stroke="#151CAA" stroke-linecap="round" stroke-linejoin="round" stroke-miterlimit="10" stroke-dasharray="9,9,6,12,12,12" points="
		494,0.7 500.5,22.1 522.9,21.6 504.5,34.4 511.8,55.5 494,42 476.2,55.5 483.5,34.4 465.1,21.6 487.5,22.1 	"/>
</g>
<g>
	
		<polygon fill="none" stroke="#151CAA" stroke-linecap="round" stroke-linejoin="round" stroke-miterlimit="10" stroke-dasharray="9,9,6,12,12,12" points="
		29,67.6 35.5,89 57.9,88.5 39.5,101.3 46.8,122.4 29,108.9 11.2,122.4 18.5,101.3 0.1,88.5 22.5,89 	"/>
	
		<polygon fill="none" stroke="#151CAA" stroke-linecap="round" stroke-linejoin="round" stroke-miterlimit="10" stroke-dasharray="9,9,6,12,12,12" points="
		122,67.6 128.5,89 150.9,88.5 132.5,101.3 139.8,122.4 122,108.9 104.2,122.4 111.5,101.3 93.1,88.5 115.5,89 	"/>
	
		<polygon fill="none" stroke="#151CAA" stroke-linecap="round" stroke-linejoin="round" stroke-miterlimit="10" stroke-dasharray="9,9,6,12,12,12" points="
		215,67.6 221.5,89 243.9,88.5 225.5,101.3 232.8,122.4 215,108.9 197.2,122.4 204.5,101.3 186.1,88.5 208.5,89 	"/>
	
		<polygon fill="none" stroke="#151CAA" stroke-linecap="round" stroke-linejoin="round" stroke-miterlimit="10" stroke-dasharray="9,9,6,12,12,12" points="
		308,67.6 314.5,89 336.9,88.5 318.5,101.3 325.8,122.4 308,108.9 290.2,122.4 297.5,101.3 279.1,88.5 301.5,89 	"/>
	
		<polygon fill="none" stroke="#151CAA" stroke-linecap="round" stroke-linejoin="round" stroke-miterlimit="10" stroke-dasharray="9,9,6,12,12,12" points="
		401,67.6 407.5,89 429.9,88.5 411.5,101.3 418.8,122.4 401,108.9 383.2,122.4 390.5,101.3 372.1,88.5 394.5,89 	"/>
	
		<polygon fill="none" stroke="#151CAA" stroke-linecap="round" stroke-linejoin="round" stroke-miterlimit="10" stroke-dasharray="9,9,6,12,12,12" points="
		494,67.6 500.5,89 522.9,88.5 504.5,101.3 511.8,122.4 494,108.9 476.2,122.4 483.5,101.3 465.1,88.5 487.5,89 	"/>
</g>
<g>
	
		<polygon fill="none" stroke="#151CAA" stroke-linecap="round" stroke-linejoin="round" stroke-miterlimit="10" stroke-dasharray="9,9,6,12,12,12" points="
		29,134.5 35.5,155.9 57.9,155.4 39.5,168.2 46.8,189.3 29,175.8 11.2,189.3 18.5,168.2 0.1,155.4 22.5,155.9 	"/>
	
		<polygon fill="none" stroke="#151CAA" stroke-linecap="round" stroke-linejoin="round" stroke-miterlimit="10" stroke-dasharray="9,9,6,12,12,12" points="
		122,134.5 128.5,155.9 150.9,155.4 132.5,168.2 139.8,189.3 122,175.8 104.2,189.3 111.5,168.2 93.1,155.4 115.5,155.9 	"/>
	
		<polygon fill="none" stroke="#151CAA" stroke-linecap="round" stroke-linejoin="round" stroke-miterlimit="10" stroke-dasharray="9,9,6,12,12,12" points="
		215,134.5 221.5,155.9 243.9,155.4 225.5,168.2 232.8,189.3 215,175.8 197.2,189.3 204.5,168.2 186.1,155.4 208.5,155.9 	"/>
	
		<polygon fill="none" stroke="#151CAA" stroke-linecap="round" stroke-linejoin="round" stroke-miterlimit="10" stroke-dasharray="9,9,6,12,12,12" points="
		308,134.5 314.5,155.9 336.9,155.4 318.5,168.2 325.8,189.3 308,175.8 290.2,189.3 297.5,168.2 279.1,155.4 301.5,155.9 	"/>
	
		<polygon fill="none" stroke="#151CAA" stroke-linecap="round" stroke-linejoin="round" stroke-miterlimit="10" stroke-dasharray="9,9,6,12,12,12" points="
		401,134.5 407.5,155.9 429.9,155.4 411.5,168.2 418.8,189.3 401,175.8 383.2,189.3 390.5,168.2 372.1,155.4 394.5,155.9 	"/>
	
		<polygon fill="none" stroke="#151CAA" stroke-linecap="round" stroke-linejoin="round" stroke-miterlimit="10" stroke-dasharray="9,9,6,12,12,12" points="
		494,134.5 500.5,155.9 522.9,155.4 504.5,168.2 511.8,189.3 494,175.8 476.2,189.3 483.5,168.2 465.1,155.4 487.5,155.9 	"/>
</g>
<g>
	
		<polygon fill="none" stroke="#151CAA" stroke-linecap="round" stroke-linejoin="round" stroke-miterlimit="10" stroke-dasharray="9,9,6,12,12,12" points="
		29,201.4 35.5,222.8 57.9,222.3 39.5,235.1 46.8,256.2 29,242.7 11.2,256.2 18.5,235.1 0.1,222.3 22.5,222.8 	"/>
	
		<polygon fill="none" stroke="#151CAA" stroke-linecap="round" stroke-linejoin="round" stroke-miterlimit="10" stroke-dasharray="9,9,6,12,12,12" points="
		122,201.4 128.5,222.8 150.9,222.3 132.5,235.1 139.8,256.2 122,242.7 104.2,256.2 111.5,235.1 93.1,222.3 115.5,222.8 	"/>
	
		<polygon fill="none" stroke="#151CAA" stroke-linecap="round" stroke-linejoin="round" stroke-miterlimit="10" stroke-dasharray="9,9,6,12,12,12" points="
		215,201.4 221.5,222.8 243.9,222.3 225.5,235.1 232.8,256.2 215,242.7 197.2,256.2 204.5,235.1 186.1,222.3 208.5,222.8 	"/>
	
		<polygon fill="none" stroke="#151CAA" stroke-linecap="round" stroke-linejoin="round" stroke-miterlimit="10" stroke-dasharray="9,9,6,12,12,12" points="
		308,201.4 314.5,222.8 336.9,222.3 318.5,235.1 325.8,256.2 308,242.7 290.2,256.2 297.5,235.1 279.1,222.3 301.5,222.8 	"/>
	
		<polygon fill="none" stroke="#151CAA" stroke-linecap="round" stroke-linejoin="round" stroke-miterlimit="10" stroke-dasharray="9,9,6,12,12,12" points="
		401,201.4 407.5,222.8 429.9,222.3 411.5,235.1 418.8,256.2 401,242.7 383.2,256.2 390.5,235.1 372.1,222.3 394.5,222.8 	"/>
	
		<polygon fill="none" stroke="#151CAA" stroke-linecap="round" stroke-linejoin="round" stroke-miterlimit="10" stroke-dasharray="9,9,6,12,12,12" points="
		494,201.4 500.5,222.8 522.9,222.3 504.5,235.1 511.8,256.2 494,242.7 476.2,256.2 483.5,235.1 465.1,222.3 487.5,222.8 	"/>
</g>
<g>
	
		<polygon fill="none" stroke="#151CAA" stroke-linecap="round" stroke-linejoin="round" stroke-miterlimit="10" stroke-dasharray="9,9,6,12,12,12" points="
		29,268.2 35.5,289.7 57.9,289.2 39.5,302 46.8,323.1 29,309.6 11.2,323.1 18.5,302 0.1,289.2 22.5,289.7 	"/>
	
		<polygon fill="none" stroke="#151CAA" stroke-linecap="round" stroke-linejoin="round" stroke-miterlimit="10" stroke-dasharray="9,9,6,12,12,12" points="
		122,268.2 128.5,289.7 150.9,289.2 132.5,302 139.8,323.1 122,309.6 104.2,323.1 111.5,302 93.1,289.2 115.5,289.7 	"/>
	
		<polygon fill="none" stroke="#151CAA" stroke-linecap="round" stroke-linejoin="round" stroke-miterlimit="10" stroke-dasharray="9,9,6,12,12,12" points="
		215,268.2 221.5,289.7 243.9,289.2 225.5,302 232.8,323.1 215,309.6 197.2,323.1 204.5,302 186.1,289.2 208.5,289.7 	"/>
	
		<polygon fill="none" stroke="#151CAA" stroke-linecap="round" stroke-linejoin="round" stroke-miterlimit="10" stroke-dasharray="9,9,6,12,12,12" points="
		308,268.2 314.5,289.7 336.9,289.2 318.5,302 325.8,323.1 308,309.6 290.2,323.1 297.5,302 279.1,289.2 301.5,289.7 	"/>
	
		<polygon fill="none" stroke="#151CAA" stroke-linecap="round" stroke-linejoin="round" stroke-miterlimit="10" stroke-dasharray="9,9,6,12,12,12" points="
		401,268.2 407.5,289.7 429.9,289.2 411.5,302 418.8,323.1 401,309.6 383.2,323.1 390.5,302 372.1,289.2 394.5,289.7 	"/>
	
		<polygon fill="none" stroke="#151CAA" stroke-linecap="round" stroke-linejoin="round" stroke-miterlimit="10" stroke-dasharray="9,9,6,12,12,12" points="
		494,268.2 500.5,289.7 522.9,289.2 504.5,302 511.8,323.1 494,309.6 476.2,323.1 483.5,302 465.1,289.2 487.5,289.7 	"/>
</g>
<g>
	
		<polygon fill="none" stroke="#151CAA" stroke-linecap="round" stroke-linejoin="round" stroke-miterlimit="10" stroke-dasharray="9,9,6,12,12,12" points="
		29,335.1 35.5,356.6 57.9,356.1 39.5,368.9 46.8,390 29,376.5 11.2,390 18.5,368.9 0.1,356.1 22.5,356.6 	"/>
	
		<polygon fill="none" stroke="#151CAA" stroke-linecap="round" stroke-linejoin="round" stroke-miterlimit="10" stroke-dasharray="9,9,6,12,12,12" points="
		122,335.1 128.5,356.6 150.9,356.1 132.5,368.9 139.8,390 122,376.5 104.2,390 111.5,368.9 93.1,356.1 115.5,356.6 	"/>
	
		<polygon fill="none" stroke="#151CAA" stroke-linecap="round" stroke-linejoin="round" stroke-miterlimit="10" stroke-dasharray="9,9,6,12,12,12" points="
		215,335.1 221.5,356.6 243.9,356.1 225.5,368.9 232.8,390 215,376.5 197.2,390 204.5,368.9 186.1,356.1 208.5,356.6 	"/>
	
		<polygon fill="none" stroke="#151CAA" stroke-linecap="round" stroke-linejoin="round" stroke-miterlimit="10" stroke-dasharray="9,9,6,12,12,12" points="
		308,335.1 314.5,356.6 336.9,356.1 318.5,368.9 325.8,390 308,376.5 290.2,390 297.5,368.9 279.1,356.1 301.5,356.6 	"/>
	
		<polygon fill="none" stroke="#151CAA" stroke-linecap="round" stroke-linejoin="round" stroke-miterlimit="10" stroke-dasharray="9,9,6,12,12,12" points="
		401,335.1 407.5,356.6 429.9,356.1 411.5,368.9 418.8,390 401,376.5 383.2,390 390.5,368.9 372.1,356.1 394.5,356.6 	"/>
	
		<polygon fill="none" stroke="#151CAA" stroke-linecap="round" stroke-linejoin="round" stroke-miterlimit="10" stroke-dasharray="9,9,6,12,12,12" points="
		494,335.1 500.5,356.6 522.9,356.1 504.5,368.9 511.8,390 494,376.5 476.2,390 483.5,368.9 465.1,356.1 487.5,356.6 	"/>
</g>
<g>
	<defs>
		<polygon id="SVGID_1_" points="0.5,926.5 1334.5,926.5 1334.5,0.5 582.9,0.5 582.5,413.5 0.5,413 		"/>
	</defs>
	<clipPath id="SVGID_2_">
		<use xlink:href="#SVGID_1_"  overflow="visible"/>
	</clipPath>
	<g clip-path="url(#SVGID_2_)">
		<line fill="none" stroke="#BA2525" stroke-miterlimit="10" x1="20" y1="899" x2="1305" y2="899"/>
		<line fill="none" stroke="#BA2525" stroke-miterlimit="10" x1="20" y1="801.9" x2="1305" y2="801.9"/>
		<line fill="none" stroke="#BA2525" stroke-miterlimit="10" x1="20" y1="704.9" x2="1305" y2="704.9"/>
		<line fill="none" stroke="#BA2525" stroke-miterlimit="10" x1="20" y1="607.8" x2="1305" y2="607.8"/>
		<line fill="none" stroke="#BA2525" stroke-miterlimit="10" x1="20" y1="510.8" x2="1305" y2="510.8"/>
		<line fill="none" stroke="#BA2525" stroke-miterlimit="10" x1="20" y1="413.7" x2="1305" y2="413.7"/>
		<line fill="none" stroke="#BA2525" stroke-miterlimit="10" x1="20" y1="316.7" x2="1305" y2="316.7"/>
		<line fill="none" stroke="#BA2525" stroke-miterlimit="10" x1="20" y1="219.6" x2="1305" y2="219.6"/>
		<line fill="none" stroke="#BA2525" stroke-miterlimit="10" x1="20" y1="122.6" x2="1305" y2="122.6"/>
		<line fill="none" stroke="#BA2525" stroke-miterlimit="10" x1="20" y1="25.5" x2="1305" y2="25.5"/>
	</g>
	<g clip-path="url(#SVGID_2_)">
		<line fill="none" stroke="#FFFFFF" stroke-miterlimit="10" x1="20" y1="949" x2="1305" y2="949"/>
		<line fill="none" stroke="#FFFFFF" stroke-miterlimit="10" x1="20" y1="851.9" x2="1305" y2="851.9"/>
		<line fill="none" stroke="#FFFFFF" stroke-miterlimit="10" x1="20" y1="754.9" x2="1305" y2="754.9"/>
		<line fill="none" stroke="#FFFFFF" stroke-miterlimit="10" x1="20" y1="657.8" x2="1305" y2="657.8"/>
		<line fill="none" stroke="#FFFFFF" stroke-miterlimit="10" x1="20" y1="560.8" x2="1305" y2="560.8"/>
		<line fill="none" stroke="#FFFFFF" stroke-miterlimit="10" x1="20" y1="463.7" x2="1305" y2="463.7"/>
		<line fill="none" stroke="#FFFFFF" stroke-miterlimit="10" x1="20" y1="366.7" x2="1305" y2="366.7"/>
		<line fill="none" stroke="#FFFFFF" stroke-miterlimit="10" x1="20" y1="269.6" x2="1305" y2="269.6"/>
		<line fill="none" stroke="#FFFFFF" stroke-miterlimit="10" x1="20" y1="172.6" x2="1305" y2="172.6"/>
		<line fill="none" stroke="#FFFFFF" stroke-miterlimit="10" x1="20" y1="75.5" x2="1305" y2="75.5"/>
	</g>
</g>
</svg>
