<?xml version="1.0" encoding="utf-8"?>
<!-- Generator: Adobe Illustrator 21.0.0, SVG Export Plug-In . SVG Version: 6.00 Build 0)  -->
<svg version="1.1" id="Layer_1" xmlns="http://www.w3.org/2000/svg" xmlns:xlink="http://www.w3.org/1999/xlink" x="0px" y="0px"
	 viewBox="0 0 607.5 165.8" enable-background="new 0 0 607.5 165.8" xml:space="preserve">
<path fill="none" stroke="#000000" stroke-miterlimit="10" d="M0.3,138.2c10.1-8.2,15.7-21.5,14.7-34.5c-0.8,4.6-1.6,9.1-2.3,13.7
	c-0.3,1.5-0.5,3.2,0,4.6c0.7,2.1,2.9,3.5,5,4.2c8,2.6,17-1.5,22.5-8s7.9-14.8,9.9-23c4.7-19.3,7.2-39.1,7.4-59
	c-2.3,18.9-4.5,37.8-6.8,56.7c-0.6,5.1-1.2,10.5,0.4,15.4c1.6,4.9,6.1,9.3,11.3,9c5.8-0.4,9.6-5.9,12.5-10.9
	C80,98,84.9,89.5,89.9,81.1c1.8,8.9,2.6,18.1,2.1,27.2c-0.2,4-0.9,8.4-4.1,10.7c-3.2,2.3-9.2-0.2-8.1-4c0.8-2.8,4.2-3.6,7-3.8
	c13-1,26.3,1.5,38.8-2.2c14.3-4.1,25.8-16.6,28.8-31.1"/>
<g>
	<g>
		<path d="M175.4,108.9c10.8-10.1,20.5-21.8,23-36.8c2.8-16.4-0.9-33.6-3.4-49.7c-0.3-1.9-3.2-1.1-2.9,0.8
			c2.4,16.3,4.8,32.6,7.2,48.9c1.2,7.8,1.3,26.2,13.6,25.2c10.6-0.9,14.3-16.2,17-24.1c5.5-15.7,10.5-31.5,15.2-47.5
			c-1-0.3-1.9-0.5-2.9-0.8c-4.8,24.5-7.2,49.2-10.5,73.9c-0.2,1.5,2.2,2.1,2.8,0.8c4.8-10.4,16.7-15.5,24-23.9
			c-0.8-0.2-1.7-0.4-2.5-0.7c1.4,7.6,4.4,14.4,9,20.7c0.5,0.7,1.7,1.1,2.4,0.3c7.3-8.4,12.1-18.3,14.3-29.1
			c-0.9,0.1-1.8,0.2-2.7,0.4c2.7,5.6,1.1,13,5.1,18.1c2.8,3.5,7.2,4.4,11.2,2.6c5.1-2.3,8.6-7.6,10.4-12.8
			c2.3-6.7,3.3-15.7,10.7-18.6c-0.6-0.2-1.1-0.5-1.7-0.7c2.9,6.8,6,16.5,0.8,22.9c-3.6,4.4-11.8,6.3-15.2,0.7
			c-0.2,0.7-0.4,1.4-0.5,2.1c21.4-9.8,45.3-6.1,67.7-11c16.6-3.6,33.1-12,39.9-28.4c0.7-1.8-2.2-2.6-2.9-0.8
			c-7.3,17.7-27.2,25-44.8,27.6c-20.7,3-42,1.1-61.5,10c-0.7,0.3-0.9,1.4-0.5,2.1c4,6.5,12.9,6.1,18.4,1.5c8.4-7,4.9-19.6,1.3-28.2
			c-0.2-0.6-1.1-0.9-1.7-0.7c-10.1,4-9.8,15.1-14,23.5c-3.1,6.3-13.1,13.8-16.6,3.4c-1.6-4.9-1.2-10-3.4-14.8
			c-0.6-1.1-2.5-0.9-2.7,0.4c-2.1,10.4-6.7,19.8-13.6,27.8c0.8,0.1,1.6,0.2,2.4,0.3c-4.4-6-7.3-12.6-8.7-19.9
			c-0.2-1.1-1.8-1.5-2.5-0.7C249,82.2,237,87.3,232,98.1c0.9,0.3,1.9,0.5,2.8,0.8c3.2-24.4,5.6-48.9,10.3-73.1
			c0.4-1.9-2.3-2.7-2.9-0.8c-3.7,12.6-7.6,25.1-11.8,37.5c-2,6.1-4.1,12.1-6.3,18.1c-1.8,4.8-4.9,12.2-10.6,13.6
			c-7.2,1.7-9-7.2-9.8-12.3c-1-6.4-1.9-12.8-2.8-19.2c-2-13.4-4-26.9-6-40.3c-1,0.3-1.9,0.5-2.9,0.8c2.5,15.6,6.1,32.3,3.4,48.1
			c-2.5,14.5-11.8,25.7-22.3,35.5C171.9,108.1,174,110.2,175.4,108.9L175.4,108.9z"/>
	</g>
</g>
<g>
	<g>
		<path d="M285.4,40.4c0-0.5,0-1,0-1.5c0-0.8-0.7-1.5-1.5-1.5c-0.8,0-1.5,0.7-1.5,1.5c0,0.5,0,1,0,1.5c0,0.8,0.7,1.5,1.5,1.5
			C284.7,41.9,285.4,41.3,285.4,40.4L285.4,40.4z"/>
	</g>
</g>
<g>
	<g>
		<path d="M158.3,54.3c21.9-0.3,42.1-11.7,64-12c1.9,0,1.9-3,0-3c-21.9,0.3-42.1,11.7-64,12C156.4,51.4,156.4,54.4,158.3,54.3
			L158.3,54.3z"/>
	</g>
</g>
<g>
	<g>
		<path d="M434.6,117.9c8-9.9,17.3-21.9,20.5-34.5c2-7.9-1.3-17.7-11-16.5c-8.4,1.1-14,9.6-10.8,17.6c3.8,9.6,15.3,12.9,24.6,10
			c14.7-4.6,22.1-19.3,31.5-30.3c1.2-1.5-0.8-3.6-2.1-2.1c-6.5,7.5-12,15.6-16.5,24.5c-0.4,0.7-0.2,1.6,0.5,2.1
			c12.5,7,19.8-8.3,22.3-17.9c-1,0-1.9,0-2.9,0c1,5.8,2.3,12.5,7.8,15.8c4,2.3,8.7,2.1,11.9-1.3c4.1-4.4,5.5-12.2,7.4-17.7
			c3-8.4,6-16.7,9-25.1c-0.9,0.1-1.8,0.2-2.7,0.4c3.6,6,7.7,12.5,7.9,19.7c0.2,7-4.5,14.7-12.2,14.6c0.3,0.9,0.5,1.9,0.8,2.8
			c15.1-8.8,28-20.8,38-35.2c-0.9-0.4-1.8-0.8-2.7-1.2c-1.4,6.2-0.7,12,2.1,17.7c0.4,0.9,1.7,0.9,2.4,0.3c4.5-4.4,9-8.9,13.5-13.3
			c-0.9-0.4-1.7-0.7-2.6-1.1c1,22.7-0.1,45.5-3.6,68c-1.4,9-3.2,18.1-6.6,26.6c-1.7,4.2-3.8,8.3-6.5,12c-1.4,2-3,4-4.8,5.7
			c-0.9,0.8-1.9,1.6-3,2.2c-3.2,1.7-6.5-2.1-7.1-5c-0.8-3.9,0.6-9,1.6-12.8c1.3-4.7,3.2-9.1,5.5-13.4c4.4-8.1,10-15.5,15.7-22.7
			c11.2-14.4,21.6-28.9,29.2-45.6c8.7-19.2,14-39.7,15.9-60.6c0.2-1.9-2.8-1.9-3,0c-2.1,23-8.4,45.4-18.8,66
			c-9.5,18.7-23.2,33.9-35,51c-5.4,7.7-10.2,16.1-12.5,25.2c-1.4,5.5-4.4,18.4,2.5,21.5c6.7,2.9,13.3-5.4,16.6-9.9
			c5.6-7.8,8.8-17.2,10.9-26.5c6.1-26.5,7.4-54.6,6.2-81.7c-0.1-1.3-1.6-2-2.6-1.1c-4.5,4.4-9,8.9-13.5,13.3
			c0.8,0.1,1.6,0.2,2.4,0.3c-2.5-5-3-10-1.8-15.4c0.4-1.7-1.8-2.5-2.7-1.2c-9.7,14-22.2,25.5-36.9,34.1c-1.3,0.8-0.7,2.8,0.8,2.8
			c7.5,0.1,13.2-5.9,14.7-13c2-9.3-3.3-18.2-7.9-25.8c-0.7-1.2-2.3-0.8-2.7,0.4c-3.6,10.2-7.3,20.3-10.9,30.5
			c-1.7,4.9-3.7,14.5-10.8,12.8c-6.5-1.5-7.8-9.4-8.7-14.9c-0.2-1.5-2.5-1.4-2.9,0c-1.9,7.5-7.2,22.1-17.9,16.1
			c0.2,0.7,0.4,1.4,0.5,2.1c4.3-8.6,9.6-16.6,16-23.9c-0.7-0.7-1.4-1.4-2.1-2.1c-7.4,8.7-13.1,19.3-22.8,25.8
			c-5,3.4-11.5,5.8-17.5,4.2c-5.7-1.5-11.6-6.3-11.7-12.7c0-5.1,4.5-9.1,9.4-9.6c7.8-0.8,8.9,7.7,7.3,13.4
			c-3.4,11.7-11.9,23.1-19.5,32.5C431.3,117.2,433.4,119.4,434.6,117.9L434.6,117.9z"/>
	</g>
</g>
<g>
	<g>
		<path d="M26,70.1c19,1.7,38-0.5,56.1-6.4c1.8-0.6,1-3.5-0.8-2.9c-17.9,5.9-36.6,8-55.3,6.3C24,67,24,70,26,70.1L26,70.1z"/>
	</g>
</g>
<path fill="none" stroke="#000000" stroke-miterlimit="10" d="M10.6,84.9c0,0.9,0,1.7,0,2.6c-0.3-0.7,0-1.5,0.7-1.9"/>
</svg>
